<?xml version="1.0" encoding="utf-8"?>
<!-- Generator: Adobe Illustrator 21.0.0, SVG Export Plug-In . SVG Version: 6.00 Build 0)  -->
<svg version="1.1" id="Layer_1" xmlns="http://www.w3.org/2000/svg" xmlns:xlink="http://www.w3.org/1999/xlink" x="0px" y="0px"
	 viewBox="0 0 140 77" style="enable-background:new 0 0 140 77;" xml:space="preserve">
<style type="text/css">
	.st0{fill:#120F38;}
	.st1{fill:#AFCD36;}
	.st2{fill:#04A5C0;}
	.st3{fill:#D3196F;}
</style>
<g>
	<path class="st0" d="M10,7c6.4-6.4,16.8-6.4,23.2,0l52.1,52.4l0,15.3L25.6,14.7c-1.1-1.1-2.5-1.6-4-1.6c-1.4,0-2.9,0.5-4,1.6
		c-2.2,2.2-2.2,5.7,0,7.9l36.6,36.8l0.1,15.4L10,30.2C3.6,23.8,3.6,13.4,10,7z"/>
	<polygon class="st1" points="47.4,52.5 69.9,29.8 69.9,14.5 39.8,44.8 	"/>
	<polygon class="st2" points="92.4,52.4 69.9,29.8 69.9,14.5 100.1,44.7 	"/>
	<path class="st3" d="M129.9,7c-6.4-6.4-16.8-6.4-23.2,0L54.3,59.4l0.1,15.4l60-60.2c1.1-1.1,2.5-1.6,4-1.6c1.4,0,2.9,0.5,4,1.6
		c2.2,2.2,2.2,5.7,0,7.9l-37,37l0,15.3l44.6-44.6C136.3,23.8,136.3,13.4,129.9,7z"/>
</g>
</svg>
