<?xml version="1.0" encoding="utf-8"?>
<!-- Generator: Adobe Illustrator 21.0.0, SVG Export Plug-In . SVG Version: 6.00 Build 0)  -->
<svg version="1.1" id="Layer_1" xmlns="http://www.w3.org/2000/svg" xmlns:xlink="http://www.w3.org/1999/xlink" x="0px" y="0px"
	 viewBox="0 0 140 77" style="enable-background:new 0 0 140 77;" xml:space="preserve">
<style type="text/css">
	.st0{fill:#120F38;}
	.st1{fill:#AFCD36;}
	.st2{fill:#04A5C0;}
	.st3{fill:#D3196F;}
</style>
<g>
	<path d="M43.2,60.8c-0.8,0-1.5,0.6-1.5,1.5v5.2c0,0.8-0.7,1.5-1.5,1.5h-7.8c-0.8,0-1.5-0.7-1.5-1.5v-5.2c0-0.8-0.7-1.5-1.5-1.5
		c-0.8,0-1.5,0.6-1.5,1.5v5.2c0,2.4,2,4.4,4.4,4.4h7.8c2.4,0,4.4-2,4.4-4.4v-5.2C44.7,61.4,44,60.8,43.2,60.8z"/>
	<path d="M34.4,59.4c0.9,0,1.6-0.7,1.6-1.6c0-0.9-0.7-1.7-1.6-1.7c-0.9,0-1.7,0.8-1.7,1.7C32.8,58.7,33.5,59.4,34.4,59.4z"/>
	<path d="M38.4,59.4c0.9,0,1.7-0.7,1.7-1.6c0-0.9-0.7-1.7-1.7-1.7c-0.9,0-1.6,0.8-1.6,1.7C36.7,58.7,37.4,59.4,38.4,59.4z"/>
	<path d="M84.2,72.4c-0.9,0-1.7,0.7-1.7,1.7c0,0.9,0.7,1.6,1.7,1.6c0.9,0,1.6-0.7,1.6-1.6C85.8,73.1,85.1,72.4,84.2,72.4z"/>
	<path d="M97.1,52.8c-0.8,0-1.5,0.6-1.5,1.5v16.1c0,0.8,0.7,1.5,1.5,1.5c0.8,0,1.5-0.6,1.5-1.5V54.3C98.5,53.5,97.9,52.8,97.1,52.8z
		"/>
	<path d="M107,60.8c-3.1,0-5.5,2.5-5.5,5.5c0,3.1,2.5,5.5,5.5,5.5c0.9,0,1.8-0.2,2.5-0.6c-0.3,1.4-2.2,2.5-4.3,2.5
		c-0.8,0-1.5,0.6-1.5,1.5c0,0.8,0.6,1.5,1.5,1.5c1.9,0,3.6-0.6,5-1.6c0.7-0.5,1.3-1.2,1.6-1.9c0.4-0.8,0.6-1.6,0.6-2.4v-4.5
		C112.5,63.3,110,60.8,107,60.8z M107,68.9c-1.5,0-2.6-1.2-2.6-2.6c0-1.4,1.2-2.6,2.6-2.6c1.4,0,2.6,1.2,2.6,2.6
		C109.6,67.8,108.4,68.9,107,68.9z"/>
	<path d="M90.8,62.6c-1.2-1.2-2.8-1.8-4.4-1.8h-4.9c-1.5,0-3,0.6-4.1,1.6c-1.1,1.1-1.8,2.5-1.8,3.9c0,0.8,0.6,1.5,1.5,1.5
		c0.8,0,1.5-0.6,1.5-1.5c0-1.4,1.3-2.6,2.9-2.6h4.9c1.9,0,3.4,1.5,3.4,3.3v1.9H74.7h-0.1h-5.2c0.2-0.6,0.3-1.1,0.3-1.8
		c0-3.1-2.5-5.5-5.5-5.5c-3,0-5.5,2.5-5.5,5.5c0,0.6,0.1,1.2,0.3,1.8h-5.9h-0.1H52c-0.8,0-1.5-0.6-1.5-1.5V54.3
		c0-0.8-0.7-1.5-1.5-1.5c-0.8,0-1.5,0.6-1.5,1.5v13.2c0,2.4,2,4.4,4.4,4.4h1.1h0.1h7c-0.7,0.9-1.1,2-1.2,3.2h2.9
		c0.1-1.3,1.2-2.3,2.6-2.3c1.4,0,2.5,1,2.6,2.3H70c-0.1-1.2-0.5-2.3-1.2-3.2h5.9h0.1h18V67C92.7,65.4,92,63.8,90.8,62.6z M64.3,69.8
		c-1.4,0-2.6-1.2-2.6-2.6c0-1.4,1.2-2.6,2.6-2.6c1.4,0,2.6,1.2,2.6,2.6C66.9,68.6,65.7,69.8,64.3,69.8z"/>
</g>
<path class="st0" d="M30.6,6.2C34.9,2,41.8,2,46,6.2L80.5,41l0,10.2L40.9,11.3c-0.7-0.7-1.7-1.1-2.6-1.1c-0.9,0-1.9,0.4-2.6,1.1
	c-1.4,1.4-1.4,3.8,0,5.2L60,40.9L60,51.1L30.6,21.6C26.4,17.4,26.4,10.5,30.6,6.2z"/>
<polygon class="st1" points="55.4,36.3 70.3,21.3 70.3,11.2 50.3,31.2 "/>
<polygon class="st2" points="85.3,36.2 70.3,21.3 70.3,11.2 90.3,31.2 "/>
<path class="st3" d="M110.1,6.2c-4.2-4.2-11.1-4.2-15.4,0L60,40.9L60,51.1l39.7-39.9c0.7-0.7,1.7-1.1,2.6-1.1c0.9,0,1.9,0.4,2.6,1.1
	c1.4,1.4,1.4,3.8,0,5.2L80.5,41l0,10.2l29.6-29.6C114.3,17.3,114.3,10.4,110.1,6.2z"/>
</svg>
