<?xml version="1.0" encoding="utf-8"?>
<!-- Generator: Adobe Illustrator 21.0.0, SVG Export Plug-In . SVG Version: 6.00 Build 0)  -->
<svg version="1.1" id="Layer_1" xmlns="http://www.w3.org/2000/svg" xmlns:xlink="http://www.w3.org/1999/xlink" x="0px" y="0px"
	 viewBox="0 0 140 77" style="enable-background:new 0 0 140 77;" xml:space="preserve">
<g>
	<path d="M30.1,30.6c-1.2,0-2.2,1-2.2,2.2v7.8c0,1.2-1,2.2-2.2,2.2H14.1c-1.2,0-2.2-1-2.2-2.2v-7.8c0-1.2-1-2.2-2.2-2.2
		c-1.2,0-2.2,1-2.2,2.2v7.8c0,3.6,2.9,6.5,6.5,6.5h11.6c3.6,0,6.5-2.9,6.5-6.5v-7.8C32.2,31.6,31.2,30.6,30.1,30.6z"/>
	<path d="M17,28.5c1.3,0,2.4-1.1,2.4-2.4s-1.1-2.5-2.4-2.5c-1.3,0-2.5,1.1-2.5,2.5S15.7,28.5,17,28.5z"/>
	<path d="M22.8,28.5c1.4,0,2.5-1.1,2.5-2.4s-1.1-2.5-2.5-2.5c-1.3,0-2.4,1.1-2.4,2.5S21.5,28.5,22.8,28.5z"/>
	<path d="M90.9,47.9c-1.4,0-2.5,1.1-2.5,2.5c0,1.3,1.1,2.4,2.5,2.4c1.3,0,2.4-1.1,2.4-2.4C93.4,49,92.3,47.9,90.9,47.9z"/>
	<path d="M110.1,18.8c-1.2,0-2.2,1-2.2,2.2v23.9c0,1.2,1,2.2,2.2,2.2c1.2,0,2.2-1,2.2-2.2V21C112.2,19.7,111.3,18.8,110.1,18.8z"/>
	<path d="M124.8,30.6c-4.6,0-8.2,3.7-8.2,8.2c0,4.6,3.7,8.2,8.2,8.2c1.3,0,2.6-0.3,3.8-1c-0.5,2.1-3.3,3.8-6.4,3.8
		c-1.2,0-2.2,1-2.2,2.2c0,1.2,1,2.2,2.2,2.2c2.8,0,5.4-0.9,7.5-2.4c1-0.8,1.9-1.7,2.4-2.8c0.7-1.1,1-2.3,1-3.6v-6.6
		C133,34.3,129.3,30.6,124.8,30.6z M124.8,42.7c-2.2,0-3.9-1.7-3.9-3.9c0-2.1,1.7-3.9,3.9-3.9c2.1,0,3.9,1.7,3.9,3.9
		C128.7,41,126.9,42.7,124.8,42.7z"/>
	<path d="M100.8,33.3c-1.7-1.7-4.1-2.7-6.6-2.7h-7.2c-2.3,0-4.4,0.8-6.1,2.3c-1.7,1.6-2.6,3.6-2.6,5.9c0,1.2,1,2.2,2.2,2.2
		c1.2,0,2.2-1,2.2-2.2c0-2.1,2-3.9,4.3-3.9h7.2c2.8,0,5,2.2,5,4.9v2.8H76.8h-0.1h-7.7c0.3-0.8,0.4-1.7,0.4-2.6
		c0-4.5-3.7-8.2-8.2-8.2c-4.5,0-8.2,3.7-8.2,8.2c0,0.9,0.2,1.8,0.4,2.6h-8.7h-0.1h-1.7c-1.2,0-2.2-1-2.2-2.2V21c0-1.2-1-2.2-2.2-2.2
		c-1.2,0-2.2,1-2.2,2.2v19.6c0,3.6,2.9,6.5,6.5,6.5h1.7h0.1h10.4c-1,1.3-1.7,2.9-1.8,4.7h4.3c0.2-2,1.8-3.5,3.8-3.5
		c2,0,3.7,1.5,3.9,3.5h4.3C69.7,50,69,48.4,68,47.1h8.8h0.1h26.7v-7.2C103.6,37.4,102.6,35.1,100.8,33.3z M61.3,44
		c-2.1,0-3.9-1.7-3.9-3.9s1.7-3.9,3.9-3.9c2.1,0,3.9,1.7,3.9,3.9S63.5,44,61.3,44z"/>
</g>
</svg>
